<svg xmlns="http://www.w3.org/2000/svg" version="1.1" xmlns:xlink="http://www.w3.org/1999/xlink" xmlns:svgjs="http://svgjs.dev/svgjs" width="2000" height="1500" viewBox="0 0 2000 1500"><rect width="2000" height="1500" fill="#000000"></rect><g transform="matrix(0.75,0,0,0.75,249.090909090909,282.7536437246963)"><svg viewBox="0 0 396 247" data-background-color="#000000" preserveAspectRatio="xMidYMid meet" height="1247" width="2000" xmlns="http://www.w3.org/2000/svg" xmlns:xlink="http://www.w3.org/1999/xlink"><g id="tight-bounds" transform="matrix(1,0,0,1,0.2400000000000091,-0.09999999999999432)"><svg viewBox="0 0 395.52 247.2" height="247.2" width="395.52"><g><svg></svg></g><g><svg viewBox="0 0 395.52 247.2" height="247.2" width="395.52"><g transform="matrix(1,0,0,1,75.54432,50.98213708681919)"><svg viewBox="0 0 244.43135999999998 145.2357258263616" height="145.2357258263616" width="244.43135999999998"><g><svg viewBox="0 0 244.43135999999998 145.2357258263616" height="145.2357258263616" width="244.43135999999998"><g transform="matrix(1,0,0,1,0,108.9274842263616)"><svg viewBox="0 0 244.43135999999998 36.308241599999995" height="36.308241599999995" width="244.43135999999998"><g id="textblocktransform"><svg viewBox="0 0 244.43135999999998 36.308241599999995" height="36.308241599999995" width="244.43135999999998" id="textblock"><g><svg viewBox="0 0 244.43135999999998 36.308241599999995" height="36.308241599999995" width="244.43135999999998"><g transform="matrix(1,0,0,1,0,0)"><svg width="244.43135999999998" viewBox="4.35 -35 239.98000000000002 35.65" height="36.308241599999995" data-palette-color="#00ff13"><path d="M16.2-34.95L16.2-34.95Q20.35-34.95 22.78-34 25.2-33.05 26.25-30.73 27.3-28.4 27.3-24.15L27.3-24.15Q27.3-19.9 26.28-17.55 25.25-15.2 22.93-14.28 20.6-13.35 16.7-13.35L16.7-13.35Q14.6-13.35 12.68-13.45 10.75-13.55 9.15-13.73 7.55-13.9 6.43-14.1 5.3-14.3 4.85-14.45L4.85-14.45 5-17.15Q7.65-17.15 10.5-17.15 13.35-17.15 16.15-17.15L16.15-17.15Q18.65-17.2 20.13-17.78 21.6-18.35 22.23-19.88 22.85-21.4 22.85-24.15L22.85-24.15Q22.85-26.95 22.23-28.45 21.6-29.95 20.13-30.55 18.65-31.15 16.15-31.15L16.15-31.15Q12.05-31.15 9.08-31.1 6.1-31.05 5.05-30.95L5.05-30.95 4.35-34.5Q6.25-34.7 7.9-34.8 9.55-34.9 11.5-34.93 13.45-34.95 16.2-34.95ZM4.35-34.5L8.75-34.5 8.75 0 4.35 0 4.35-34.5ZM44.7-24.95L44.7-24.95Q47.4-24.95 49.27-24.23 51.15-23.5 52.1-21.8 53.05-20.1 53.05-17.15L53.05-17.15 53.05 0 49.7 0 49.05-5.3 48.75-5.85 48.75-17.15Q48.75-19.4 47.72-20.38 46.7-21.35 43.8-21.35L43.8-21.35Q41.9-21.35 39.02-21.15 36.15-20.95 33.35-20.7L33.35-20.7 32.95-23.85Q34.65-24.15 36.67-24.4 38.7-24.65 40.8-24.8 42.9-24.95 44.7-24.95ZM38.6-15L51.05-15 51-11.8 39.35-11.75Q37.6-11.7 36.9-10.83 36.2-9.95 36.2-8.4L36.2-8.4 36.2-6.85Q36.2-4.95 37.1-4.08 38-3.2 40-3.2L40-3.2Q41.4-3.2 43.17-3.73 44.95-4.25 46.75-5.35 48.55-6.45 50.05-8.15L50.05-8.15 50.05-5Q49.5-4.3 48.47-3.38 47.45-2.45 46.02-1.58 44.6-0.7 42.87-0.13 41.15 0.45 39.15 0.45L39.15 0.45Q37 0.45 35.35-0.33 33.7-1.1 32.77-2.63 31.85-4.15 31.85-6.35L31.85-6.35 31.85-9Q31.85-11.85 33.62-13.43 35.4-15 38.6-15L38.6-15ZM68.75-24.95L68.75-24.95Q70.34-24.95 72.15-24.85 73.95-24.75 75.72-24.6 77.5-24.45 79-24.2L79-24.2 78.65-21.1Q76.34-21.2 74.02-21.28 71.7-21.35 69.4-21.35L69.4-21.35Q67.15-21.4 65.84-21.25 64.55-21.1 63.97-20.45 63.4-19.8 63.4-18.25L63.4-18.25Q63.4-16.35 64.3-15.75 65.2-15.15 66.95-14.75L66.95-14.75 74.05-13.15Q76.95-12.45 78.32-11 79.7-9.55 79.7-6.45L79.7-6.45Q79.7-3.45 78.57-1.95 77.45-0.45 75.15 0.05 72.84 0.55 69.3 0.55L69.3 0.55Q68 0.55 65.42 0.45 62.85 0.35 59.75-0.15L59.75-0.15 60.05-3.25Q61.25-3.2 62.6-3.13 63.95-3.05 65.42-3.05 66.9-3.05 68.45-3.05L68.45-3.05Q71.2-3.05 72.75-3.3 74.3-3.55 74.95-4.28 75.59-5 75.59-6.45L75.59-6.45Q75.59-8.25 74.55-8.85 73.5-9.45 71.75-9.85L71.75-9.85 64.75-11.45Q62.75-11.95 61.55-12.78 60.35-13.6 59.8-14.93 59.25-16.25 59.25-18.25L59.25-18.25Q59.25-21.1 60.25-22.55 61.25-24 63.35-24.5 65.45-25 68.75-24.95ZM94.14-24.95L94.14-24.95Q95.74-24.95 97.54-24.85 99.34-24.75 101.12-24.6 102.89-24.45 104.39-24.2L104.39-24.2 104.04-21.1Q101.74-21.2 99.42-21.28 97.09-21.35 94.79-21.35L94.79-21.35Q92.54-21.4 91.24-21.25 89.94-21.1 89.37-20.45 88.79-19.8 88.79-18.25L88.79-18.25Q88.79-16.35 89.69-15.75 90.59-15.15 92.34-14.75L92.34-14.75 99.44-13.15Q102.34-12.45 103.72-11 105.09-9.55 105.09-6.45L105.09-6.45Q105.09-3.45 103.97-1.95 102.84-0.45 100.54 0.05 98.24 0.55 94.69 0.55L94.69 0.55Q93.39 0.55 90.82 0.45 88.24 0.35 85.14-0.15L85.14-0.15 85.44-3.25Q86.64-3.2 87.99-3.13 89.34-3.05 90.82-3.05 92.29-3.05 93.84-3.05L93.84-3.05Q96.59-3.05 98.14-3.3 99.69-3.55 100.34-4.28 100.99-5 100.99-6.45L100.99-6.45Q100.99-8.25 99.94-8.85 98.89-9.45 97.14-9.85L97.14-9.85 90.14-11.45Q88.14-11.95 86.94-12.78 85.74-13.6 85.19-14.93 84.64-16.25 84.64-18.25L84.64-18.25Q84.64-21.1 85.64-22.55 86.64-24 88.74-24.5 90.84-25 94.14-24.95ZM143.09-24.35L147.49-24.35 140.39-1.2Q140.24-0.65 139.79-0.33 139.34 0 138.74 0L138.74 0 134.89 0Q134.29 0 133.82-0.38 133.34-0.75 133.24-1.35L133.24-1.35 129.24-17.9Q129.04-18.85 128.87-19.8 128.69-20.75 128.44-21.75L128.44-21.75 127.84-21.75Q127.64-20.75 127.42-19.8 127.19-18.85 126.99-17.9L126.99-17.9 123.04-1.35Q122.89-0.75 122.44-0.38 121.99 0 121.34 0L121.34 0 117.54 0Q116.94 0 116.49-0.33 116.04-0.65 115.89-1.2L115.89-1.2 108.79-24.35 113.19-24.35 118.24-6.4Q118.49-5.5 118.69-4.58 118.89-3.65 119.04-2.75L119.04-2.75 119.69-2.75Q119.94-3.65 120.17-4.58 120.39-5.5 120.59-6.4L120.59-6.4 124.64-23Q124.74-23.6 125.17-23.98 125.59-24.35 126.24-24.35L126.24-24.35 130.09-24.35Q130.69-24.35 131.12-23.98 131.54-23.6 131.69-22.95L131.69-22.95 135.69-6.4Q135.89-5.5 136.12-4.6 136.34-3.7 136.54-2.75L136.54-2.75 137.19-2.75Q137.44-3.7 137.59-4.58 137.74-5.45 138.04-6.4L138.04-6.4 143.09-24.35ZM162.79-24.95L162.79-24.95Q166.99-24.95 169.51-23.7 172.04-22.45 173.14-19.63 174.24-16.8 174.24-12.15L174.24-12.15Q174.24-7.5 173.14-4.67 172.04-1.85 169.51-0.6 166.99 0.65 162.79 0.65L162.79 0.65Q158.64 0.65 156.11-0.6 153.59-1.85 152.46-4.67 151.34-7.5 151.34-12.15L151.34-12.15Q151.34-16.8 152.46-19.63 153.59-22.45 156.11-23.7 158.64-24.95 162.79-24.95ZM162.79-21.35L162.79-21.35Q160.14-21.35 158.61-20.53 157.09-19.7 156.44-17.7 155.79-15.7 155.79-12.15L155.79-12.15Q155.79-8.6 156.44-6.6 157.09-4.6 158.61-3.78 160.14-2.95 162.79-2.95L162.79-2.95Q165.44-2.95 166.99-3.78 168.54-4.6 169.19-6.6 169.84-8.6 169.84-12.15L169.84-12.15Q169.84-15.7 169.19-17.7 168.54-19.7 166.99-20.53 165.44-21.35 162.79-21.35ZM180.89-24.35L184.19-24.35 184.74-19.7 185.14-18.95 185.14 0 180.89 0 180.89-24.35ZM195.04-24.95L196.14-24.95 195.64-20.95 194.24-20.95Q192.09-20.95 189.94-20.08 187.79-19.2 184.69-17.6L184.69-17.6 184.34-20.25Q187.04-22.45 189.76-23.7 192.49-24.95 195.04-24.95L195.04-24.95ZM208.53-24.95L208.53-24.95Q210.93-24.95 213.28-24.33 215.63-23.7 217.78-22.4L217.78-22.4 217.53-19.75Q215.18-20.45 213.38-20.85 211.58-21.25 209.53-21.25L209.53-21.25Q207.43-21.25 206.16-20.53 204.88-19.8 204.28-17.85 203.68-15.9 203.68-12.3L203.68-12.3Q203.68-8.7 204.26-6.7 204.83-4.7 206.08-3.9 207.33-3.1 209.28-3.1L209.28-3.1Q210.73-3.1 211.91-3.48 213.08-3.85 214.41-4.7 215.73-5.55 217.53-6.85L217.53-6.85 217.93-3.85Q215.93-2 213.38-0.7 210.83 0.6 207.88 0.6L207.88 0.6Q203.28 0.6 201.31-2.65 199.33-5.9 199.33-12.25L199.33-12.25Q199.33-17 200.33-19.78 201.33-22.55 203.38-23.75 205.43-24.95 208.53-24.95ZM216.98-35L221.23-35 221.23 0 217.93 0 217.43-4.25 216.98-4.6 216.98-21.3 217.28-22.05Q217.08-23.45 217.03-24.75 216.98-26.05 216.98-27.5L216.98-27.5 216.98-35ZM229.08-24.35L232.38-24.35 232.93-19.7 233.33-18.95 233.33 0 229.08 0 229.08-24.35ZM243.23-24.95L244.33-24.95 243.83-20.95 242.43-20.95Q240.28-20.95 238.13-20.08 235.98-19.2 232.88-17.6L232.88-17.6 232.53-20.25Q235.23-22.45 237.96-23.7 240.68-24.95 243.23-24.95L243.23-24.95Z" opacity="1" transform="matrix(1,0,0,1,0,0)" fill="#00ff13" class="wordmark-text-0" data-fill-palette-color="primary" id="text-0"></path></svg></g></svg></g></svg></g></svg></g><g transform="matrix(1,0,0,1,95.02875076914358,0)"><svg viewBox="0 0 54.37385846171281 100.3559797824" height="100.3559797824" width="54.37385846171281"><g><svg xmlns="http://www.w3.org/2000/svg" xmlns:xlink="http://www.w3.org/1999/xlink" version="1.1" x="0" y="0" viewBox="-343.70000000000005 254.6 47.30000000000007 87.29999999999998" style="enable-background:new -370 248.3 100 100;" xml:space="preserve" height="100.3559797824" width="54.37385846171281" class="icon-icon-0" data-fill-palette-color="accent" id="icon-0"><path d="M-303.5 254.6h-33.1c-3.9 0-7.1 3.2-7.1 7.1v73.1c0 3.9 3.2 7.1 7.1 7.1h33.1c3.9 0 7.1-3.2 7.1-7.1v-73.1C-296.4 257.8-299.6 254.6-303.5 254.6zM-327.7 260.1h15.5c0.7 0 1.2 0.5 1.2 1.2 0 0.7-0.5 1.2-1.2 1.2h-15.5c-0.7 0-1.2-0.5-1.2-1.2C-328.9 260.7-328.4 260.1-327.7 260.1zM-320 338.8c-2.3 0-4.2-1.9-4.2-4.2s1.9-4.2 4.2-4.2 4.2 1.9 4.2 4.2S-317.7 338.8-320 338.8zM-299.8 327.4h-40.4v-59.9h40.4V327.4z" fill="#00ff13" data-fill-palette-color="accent"></path><path d="M-320 319.8c2.1 0 3.9-1.6 4-3.7h0c0-0.1 0-0.2 0-0.2 0 0 0-0.1 0-0.1 0 0 0 0 0 0 0-0.1 0-0.2 0-0.2 0 0 0 0 0-0.1v-0.8l0 0c-0.7 0-1.3-0.3-1.7-0.7l0 0c-0.1-0.1-0.1-0.1-0.1-0.2 0 0 0 0 0 0-0.1-0.1-0.2-0.2-0.3-0.4 0 0 0 0 0 0 0-0.1-0.1-0.1-0.1-0.2 0 0 0 0 0 0-0.1-0.1-0.1-0.3-0.1-0.4 0 0 0 0 0 0 0-0.1 0-0.1 0-0.2 0 0 0 0 0-0.1 0-0.1 0-0.2 0-0.2 0-1 0.6-1.9 1.5-2.2v0 0c0.6-0.2 0.9-0.8 0.9-1.4v0 0c0-0.6-0.4-1.2-0.9-1.4v0 0c-0.9-0.4-1.5-1.2-1.5-2.2 0-0.1 0-0.2 0-0.2 0 0 0 0 0-0.1 0-0.1 0-0.1 0-0.2 0 0 0 0 0 0 0-0.1 0.1-0.3 0.1-0.4 0 0 0 0 0 0 0-0.1 0.1-0.1 0.1-0.2 0 0 0 0 0 0 0.1-0.1 0.2-0.3 0.3-0.4l0 0c0-0.1 0.1-0.1 0.1-0.2l0 0c0.4-0.4 1-0.7 1.7-0.7l0 0v-5.9h0.5c0.5 0 0.8-0.4 0.8-0.8v-1.8c2.6-1.7 4.4-4.7 4.4-8.1 0-5.4-4.4-9.8-9.8-9.8s-9.8 4.4-9.8 9.8c0 3.4 1.7 6.4 4.4 8.1v1.8c0 0.5 0.4 0.8 0.8 0.8h0.5v0.6 18.3 0.7h0C-323.9 318.2-322.1 319.8-320 319.8zM-322.5 282.1c0-1.4 1.1-2.5 2.5-2.5 1.4 0 2.5 1.1 2.5 2.5 0 1.4-1.1 2.5-2.5 2.5C-321.4 284.6-322.5 283.4-322.5 282.1z" fill="#00ff13" data-fill-palette-color="accent"></path></svg></g></svg></g><g></g></svg></g></svg></g><g><path d="M106.409 42.411A122.216 122.216 0 0 1 289.111 42.411L285.836 42.411A118.941 118.941 0 0 0 109.684 42.411L106.409 42.411M106.409 204.789A122.216 122.216 0 0 0 289.111 204.789L285.836 204.789A118.941 118.941 0 0 1 109.684 204.789L106.409 204.789" fill="#00ff13" stroke="transparent" data-fill-palette-color="tertiary"></path></g></svg></g><defs></defs></svg><rect width="395.52" height="247.2" fill="none" stroke="none" visibility="hidden"></rect></g></svg></g></svg>